/* XPM */
static char *result[] = {
/* columns rows colors chars-per-pixel */
"35 36 79 1 ",
"  c #37CAE4",
". c #3ACEE5",
"X c #3FCEE9",
"o c #43CBE6",
"O c #4ACDE7",
"+ c #42CDEB",
"@ c #4CCEEC",
"# c #5CCBE9",
"$ c #46D2EA",
"% c #4DD2EB",
"& c #55D2EB",
"* c #5BD3EB",
"= c #5DD9EC",
"- c #5CD4F2",
"; c #60CFE8",
": c #64D4EC",
"> c #6CD6ED",
", c #74D7ED",
"< c #75DAEE",
"1 c #7BD9EE",
"2 c #62D7F3",
"3 c #6AD7F3",
"4 c #6BD8F5",
"5 c #79D6F7",
"6 c #72DAF4",
"7 c #7EDEF6",
"8 c #76DCF8",
"9 c #7DDCF9",
"0 c #8BDAEE",
"q c #83DBF3",
"w c #8ADDF4",
"e c #83DDF9",
"r c #8CDDF9",
"t c #90DEF2",
"y c #92DEF8",
"u c #A3DFF5",
"i c #84E0F6",
"p c #8CE2F6",
"a c #85E1F9",
"s c #8CE2F9",
"d c #94E2F5",
"f c #9EE3F4",
"g c #94E5FA",
"h c #9BE5FA",
"j c #9DE9FB",
"k c #A2E3F4",
"l c #ABE2F0",
"z c #AFE9F5",
"x c #A3E5F9",
"c c #A8E7F8",
"v c #A4EAFA",
"b c #ACECFB",
"n c #B4E5F6",
"m c #BCE5F6",
"M c #B4E9F6",
"N c #BCECF7",
"B c #B4E7F9",
"V c #BCE5F8",
"C c #B5ECFA",
"Z c #BDEDF9",
"A c #BDF0FB",
"S c #C5E7F5",
"D c #CBE6F4",
"F c #CDEFF7",
"G c #C4EDFA",
"H c #CBEFFA",
"J c #D5EAF6",
"K c #D2ECFA",
"L c #DCEEFB",
"P c #C4F1FC",
"I c #CBF2FB",
"U c #D4F2FB",
"Y c #DCF3FB",
"T c #DEF8FD",
"R c #E2F5FC",
"E c #E5F8FC",
"W c #EBF9FD",
"Q c #F3FCFE",
"! c None",
/* pixels */
"!!!!!!!!!!!!!!!!!!!!!!!!!!!!!!!!!!!",
"!!!!!!!!!!!!!!!!!!!!!!!!!!!!!!!!!!!",
"!!!!!!!!!!!!!!!!!!!!!!!!!!!!!!!!!!!",
"!!!!!!!!!!!!!!!!!!!!!!!!!!!!!!!!!!!",
"!!!!!!!!!!!!!!!!!!!!!!!!!!!!!!!!!!!",
"!!!!!!!!!!!!!!!!!!!!!!!!!!!!!!!!!!!",
"!!!!!!!!!!!!!!!!!!!!!!!!!!!!!!!!!!!",
"!!!!!!!!!!!!!!!!!!!!!!!!!!!!!!!!!!!",
"!!!!!!!!!!!!!!sh!!eehb!!!!!!!!!!!!!",
"!!!!!!!!!!!!-!!!9yr5eggv!!!!!!!!!!!",
"!!!!!!!!!!ge4@%!rxCCxxhvb!!!!!!!!!!",
"!!!!!!!!!segyq*=!uGUGCbcv!!!!!!!!!!",
"!!!!!!!!vguGVVk>=7MREUBxCg!!!!!!!!!",
"!!!!!!!!hvZGDJUk:*qFWRSnIbg!!!!!!!!",
"!!!!!!!jgAGKUEWH0**tTWKVbv7!!!!!!!!",
"!!!!!!!jsHUUEWWUM1&>zERGxs&!!!!!!!!",
"!!!!!!!vsGEYRWRJYM<*<NUMq*$$!!!!!!!",
"!!!!!!!bgZYLLRRLQWM:&1d<*&$=!!!!!!!",
"!!!!!!!vbIKJRRRRQQTt&oO&::6ps!!!!!!",
"!!!!!!!gPUUJRWRJREF0o.$!1gvjs!!!!!!",
"!!!!!!!vPPGUYWRJSl0*O $*ibCjh!!!!!!",
"!!!!!!!jbbPUURUM0:&*;#OO4jCj!!!!!!!",
"!!!!!!!aghCIPGf,*&;0NM<%%ivj!!!!!!!",
"!!!!!!!488qjq>*&*1zYEFt&$&gg!!!!!!!",
"!!!!!!!!6-+@%%#3tMUTTPx-X+8!!!!!!!!",
"!!!!!!!!!$++@&6wyuubCxg4$%!!!!!!!!!",
"!!!!!!!!!!-4phgprydhdgg72!!!!!!!!!!",
"!!!!!!!!!!!hhbvgsrsjCvg9!!!!!!!!!!!",
"!!!!!!!!!!!!!jgjbvjvvg!!!!!!!!!!!!!",
"!!!!!!!!!!!!!!!!bCvj!!!!!!!!!!!!!!!",
"!!!!!!!!!!!!!!!!!!!!!!!!!!!!!!!!!!!",
"!!!!!!!!!!!!!!!!!!!!!!!!!!!!!!!!!!!",
"!!!!!!!!!!!!!!!!!!!!!!!!!!!!!!!!!!!",
"!!!!!!!!!!!!!!!!!!!!!!!!!!!!!!!!!!!",
"!!!!!!!!!!!!!!!!!!!!!!!!!!!!!!!!!!!",
"!!!!!!!!!!!!!!!!!!!!!!!!!!!!!!!!!!!"
};
