/* XPM */
static char *result[] = {
/* columns rows colors chars-per-pixel */
"20 19 2 1 ",
"  c black",
". c None",
/* pixels */
"....................",
"....................",
"....................",
"....................",
"........    ........",
"....          ......",
"....          ......",
".....          .....",
".....          .....",
".....          .....",
".....          .....",
".....          .....",
"......         .....",
"......        ......",
"........    ........",
"....................",
"....................",
"....................",
"...................."
};
