/* XPM */
static char *result[] = {
/* columns rows colors chars-per-pixel */
"20 19 94 2 ",
"   c #7DB6E1",
".  c #7DBBE7",
"X  c #7ABCEC",
"o  c #75BEF1",
"O  c #7DC4F5",
"+  c #81BBE6",
"@  c #80C0EF",
"#  c #8DC4EB",
"$  c #88C4EF",
"%  c #8FC6EE",
"&  c #94C2E0",
"*  c #97C3E3",
"=  c #9AC6E7",
"-  c #95C9EE",
";  c #89C8F5",
":  c #8EC8F4",
">  c #8EC9F4",
",  c #8CCBF6",
"<  c #92CAF3",
"1  c #95CAF2",
"2  c #96CCF2",
"3  c #93CCF4",
"4  c #94CEF7",
"5  c #9ECDF0",
"6  c #91CEF8",
"7  c #9AD2F8",
"8  c #9BD2F8",
"9  c #9BD4F8",
"0  c #9CD4F9",
"q  c #9FD5F9",
"w  c #9FDBF9",
"e  c #A4D5F6",
"r  c #A0D4F8",
"t  c #A0D5F8",
"y  c #A1D5F8",
"u  c #A1D5F9",
"i  c #A4D8F9",
"p  c #A6DBFA",
"a  c #A4DCF9",
"s  c #A7DEF9",
"d  c #A6DDFA",
"f  c #A4DEFA",
"g  c #A8D9F9",
"h  c #A8DBF9",
"j  c #AADDF9",
"k  c #ABDDFA",
"l  c #ACDDF8",
"z  c #ACDCF9",
"x  c #B2DEFA",
"c  c #B2DFFA",
"v  c #87E3F9",
"b  c #84E4FA",
"n  c #8BEAFA",
"m  c #8CE8FA",
"M  c #8FEAFA",
"N  c #8FEBFA",
"B  c #92E3F9",
"V  c #92E2FA",
"C  c #93E3FA",
"Z  c #96E0F9",
"A  c #96E3F9",
"S  c #94E4FA",
"D  c #98E1FA",
"F  c #99E7F9",
"G  c #90E9F9",
"H  c #96E8FA",
"J  c #97E8FA",
"K  c #97E9FA",
"L  c #97ECFA",
"P  c #98EBFA",
"I  c #9DEDFA",
"U  c #9FEEFA",
"Y  c #A2E1FA",
"T  c #A6E4FA",
"R  c #A8E0F9",
"E  c #ADE0FA",
"W  c #AEE0FA",
"Q  c #A9E6F8",
"!  c #AAE6F9",
"~  c #ACE4F9",
"^  c #A9EEFB",
"/  c #B3E7F9",
"(  c #B2E7FB",
")  c #B6EAFB",
"_  c #B6EFFA",
"`  c #B9E8F9",
"'  c #BBEAFB",
"]  c #BEF0FB",
"[  c #C2F1FB",
"{  c #C5F0FB",
"}  c #D2F2FB",
"|  c #DFF3FB",
" . c #E6F3FA",
".. c None",
/* pixels */
"........................................",
"........................................",
"........................................",
"........................................",
"................. % - # ................",
"........& * + @ 4 g h i 8 1 ............",
"........  = 2 l ` Q ! Y a y ............",
"..........5 z ~ F G M b Z W u ..........",
"..........e w B n _ [ I J ' x ..........",
"..........t R v U |  .] P ) c ..........",
"..........r s S L { } ^ K ( q ..........",
"..........3 h T H L N m V E 6 ..........",
"............, k / A C D f 0 : ..........",
"............X O 9 j d p 7 > ............",
"................o ; < $ ................",
"........................................",
"........................................",
"........................................",
"........................................"
};
