/* XPM */
static char *result[] = {
/* columns rows colors chars-per-pixel */
"50 50 210 2 ",
"   c #1D1F27",
".  c #2A2A35",
"X  c #2D2E39",
"o  c #272832",
"O  c #342E36",
"+  c #362F35",
"@  c #2F303B",
"#  c #353037",
"$  c #33323B",
"%  c #37343A",
"&  c #23242D",
"*  c #5B2D18",
"=  c #6A371C",
"-  c #472D28",
";  c #4C322C",
":  c #53342C",
">  c #59382F",
",  c #4B3637",
"<  c #533632",
"1  c #563933",
"2  c #5C3B34",
"3  c #523C3D",
"4  c #6D3B23",
"5  c #683B2A",
"6  c #7C3E24",
"7  c #743D28",
"8  c #603D36",
"9  c #643F36",
"0  c #7F4424",
"q  c #7B422A",
"w  c #7E482B",
"e  c #66463B",
"r  c #7C4B33",
"t  c #734838",
"y  c #7C503C",
"u  c #353641",
"i  c #373A42",
"p  c #3A3A45",
"a  c #3F3F4B",
"s  c #4A3C42",
"d  c #533F42",
"f  c #3F4449",
"g  c #42454C",
"h  c #494146",
"j  c #574649",
"k  c #454453",
"l  c #494553",
"z  c #4A4C53",
"x  c #4C4B5A",
"c  c #464952",
"v  c #524E5D",
"b  c #564953",
"n  c #4B5258",
"m  c #53545C",
"M  c #5C535D",
"N  c #56575C",
"B  c #6A4C45",
"V  c #714D44",
"C  c #6D534D",
"Z  c #73534C",
"A  c #78564A",
"S  c #795548",
"D  c #6A5455",
"F  c #63555C",
"G  c #6B595C",
"H  c #65565A",
"J  c #7C5B53",
"K  c #745D5C",
"L  c #755A56",
"P  c #7B615D",
"I  c #4E4F61",
"U  c #504F61",
"Y  c #545364",
"T  c #595665",
"R  c #565669",
"E  c #585769",
"W  c #57586C",
"Q  c #5A5A6C",
"!  c #575E64",
"~  c #5C5D72",
"^  c #4F5061",
"/  c #645964",
"(  c #6C5D63",
")  c #635D6B",
"_  c #695E69",
"`  c #725E62",
"'  c #615E72",
"]  c #5D656A",
"[  c #5C6167",
"{  c #5F6073",
"}  c #6C616B",
"|  c #63636B",
" . c #786365",
".. c #646272",
"X. c #656E72",
"o. c #6B6774",
"O. c #776973",
"+. c #697377",
"@. c #6D767A",
"#. c #697376",
"$. c #717A7E",
"%. c #854B2D",
"&. c #8A4E2E",
"*. c #824729",
"=. c #824C33",
"-. c #8A4E30",
";. c #8C5233",
":. c #875338",
">. c #935433",
",. c #955936",
"<. c #9A5B36",
"1. c #945B3B",
"2. c #9A5C39",
"3. c #995733",
"4. c #8D502E",
"5. c #9E613C",
"6. c #A3623B",
"7. c #AA653C",
"8. c #AE693E",
"9. c #A46137",
"0. c #B46C3E",
"q. c #835642",
"w. c #8C5B44",
"e. c #825A4C",
"r. c #8A5D4D",
"t. c #8B5741",
"y. c #955F42",
"u. c #835E53",
"i. c #8A614E",
"p. c #956143",
"a. c #9C6243",
"s. c #92624B",
"d. c #9A654B",
"f. c #9E6A4C",
"g. c #8A6353",
"h. c #82625B",
"j. c #876256",
"k. c #976A56",
"l. c #9B715A",
"z. c #A46542",
"x. c #AA6640",
"c. c #A56946",
"v. c #AD6942",
"b. c #A56B4B",
"n. c #AB6D4B",
"m. c #A46748",
"M. c #B46D43",
"N. c #B16E48",
"B. c #AE724D",
"V. c #B67043",
"C. c #BA7145",
"Z. c #B4724B",
"A. c #BD744A",
"S. c #B9784E",
"D. c #A97455",
"F. c #BA7953",
"G. c #B37756",
"H. c #A96F50",
"J. c #896B65",
"K. c #997265",
"L. c #957874",
"P. c #946E63",
"I. c #A97A63",
"U. c #C1774C",
"Y. c #C4794E",
"T. c #C67B50",
"R. c #BA825F",
"E. c #B48265",
"W. c #C28866",
"Q. c #C5906E",
"!. c #767D81",
"~. c #7C8589",
"^. c #7E898C",
"/. c #778486",
"(. c #7F9294",
"). c #828B8E",
"_. c #828E92",
"`. c #849295",
"'. c #849798",
"]. c #8B979A",
"[. c #8C9A9D",
"{. c #879699",
"}. c #909C9E",
"|. c #8E9EA1",
" X c #919EA1",
".X c #8EA0A2",
"XX c #93A2A5",
"oX c #95A6A8",
"OX c #99A7A9",
"+X c #9BABAE",
"@X c #97A7A9",
"#X c #9EADB0",
"$X c #A1ACAE",
"%X c #A1AEB2",
"&X c #A3B2B5",
"*X c #A6B6B9",
"=X c #A9B6BA",
"-X c #ACBBBD",
";X c #A7B8BB",
":X c #B2BDBF",
">X c #AFBDC0",
",X c #B2BFC2",
"<X c #B5C3C6",
"1X c #B9C6C9",
"2X c #BDC9CC",
"3X c #B7C4C8",
"4X c #B6C7C9",
"5X c #C6D3D6",
"6X c #C1CED2",
"7X c None",
/* pixels */
"7X7X7X7X7X7X7X7X7X7X7X7X7X7X7X7X7X7X7X7X7X7X7X7X7X7X7X7X7X7X7X7X7X7X7X7X7X7X7X7X7X7X7X7X7X7X7X7X7X7X",
"7X7X7X7X7X7X7X7X7X7X7X7X7X7X7X7X7X7X7X7X7X7X7X7X7X7X7X7X7X7X7X7X7X7X7X7X7X7X7X7X7X7X7X7X7X7X7X7X7X7X",
"7X7X7X7X7X7X7X7X7X7X7X7X7X7X7X7X7X7X7X7X7X7X7X7X7X7X7X7X7X7X7X7X7X7X7X7X7X7X7X7X7X7X7X7X7X7X7X7X7X7X",
"7X7X7X7X7X7X7X7X7X7X7X7X7X7X7X7X7X7X7X7X7X7X7X7X7X7X7X7X7X7X7X7X7X7X7X7X7X7X7X7X7X7X7X7X7X7X7X7X7X7X",
"7X7X7X7X7X7X7X7X7X7X7X7X7X7X7X7X7X7X7X7X7X7XOX{.=X,X,X1X<XXX7X7X7X7X7X7X7X7X7X7X7X7X7X7X7X7X7X7X7X7X",
"7X7X7X7X7X7X7X7X7X7X7X7X7X7X7X7X7X7X7X7X[.+X@X%X&X,X3X6X1XOX&XXX7X7X7X7X7X7X7X7X7X7X7X7X7X7X7X7X7X7X",
"7X7X7X7X7X7X7X7X7X7X7X7X7X7X7X7X7X[.1X<X[.#XoX+X,X%X$X%X=X-X,X}.&X;X&X7X7X7X7X7X7X7X7X7X7X7X7X7X7X7X",
"7X7X7X7X7X7X7X7X7X7X7X7X7X7X7X7X@XXX#X&X`.$X;X+X X@.$. X=X6X3X X;X*X&X&X7X7X7X7X7X7X7X7X7X7X7X7X7X7X",
"7X7X7X7X7X7X7X7X7X7X7X7X7X7X+X@.`..XXX&XoX!.X.g . & % z X.!.~.$X*X.XXX X$.&X7X7X7X7X7X7X7X7X7X7X7X7X",
"7X7X7X7X7X7X7X7X7X7X7X7X+X&X;X@X_..X.X[.m   o $ l x T | M c % $.+X$X*X X:X5X:X$X7X7X7X7X7X7X7X7X7X7X",
"7X7X7X7X7X7X7X7X7X7X7X$X#X@XoX#X X].+.$ X l K B l v ) o.3 P } m g ). X X<X-X*X:X,X7X7X7X7X7X7X7X7X7X",
"7X7X7X7X7X7X7X7X7X7X7XXX.X+XoX[.`.f . l P q.9.7 l U Q ..C s.i.J.| h | &X:XOX=X:X-X7X7X7X7X7X7X7X7X7X",
"7X7X7X7X7X7X7X7X7X7X7X$.+X;X-X[.f % F S x.` s.7 v R T Q > w J i.s.H p z /.XXXX+X`.X.7X7X7X7X7X7X7X7X",
"7X7X7X7X7X7X7X7X7X7X#X^.^.&XXXf p M p.7.M.j.f.7 v R Q | e r L.k.B.D.G c z [.+X)._.&X$X7X7X7X7X7X7X7X",
"7X7X7X7X7X7X7X7X7X=X-X-X X@.i u K w 5.V.C.2.M.7 v R R Q 8 w S.z.v.C.-.C p i @.].{.{.XX7X7X7X7X7X7X7X",
"7X7X7X7X7X7X7X7X%X*X*X-X-XN o F c.&.9.U.U.6.M.7 Y Q R ~ 8 %.U.x.v.V.&.6.D o n +X@X+X=X%X7X7X7X7X7X7X",
"7X7X7X7X7X7X7X7X%X;X#XoX|.i l q.V.;.5.A.U.5.M.7 T ~ T Q 8 %.Y.x.M.C.-.8.a.s % ].|.|.+X#X7X7X7X7X7X7X",
"7X7X7X7X7X7X7X7X%X@X(.'.X.u C >.7.w 7.S.Y.y.C.6 U W Y E 8 -.T.v.N.U.-.7.7.e $ X.+XXX+X&X7X7X7X7X7X7X",
"7X7X7X7X7X7X7X7X#XoX(.|.c g 1.S H j z.Y.Y.2.Z.q Y Q Y ' 8 ;.T.v.N.M.e Z w.r h g @X+X&X;X7X7X7X7X7X7X",
"7X7X7X7X7X7X7X7X@XoX@X^.@ B q./ L _ f.Y.U.1.A.6 M E U ' 2 ;.T.v.x.n./ F M :.S @ ~.#X#X#X7X7X7X7X7X7X",
"7X7X7X7X7X7X7X7X[.`.~.n @ A J V x.q.c.Y.A.;.Z.6 d Q U E < >.T.v.x.N.J m.e.K w.O f '.(.].7X7X7X7X7X7X",
"7X7X7X7X7X7X7X7X2X2XoXm @ M ) _ J.K K h. .L N.7 T Q U ' < -.G.r.r.s.A k.u._ L X x >X>X*X7X7X7X7X7X7X",
"7X7X7X7X7X7X7X7X4X2X-X[ $ ) Q _ ` ( ` ` ` ` b.6 U Q U Q < =.O.) ) ) ..} o...E u ^ -X<X&X7X7X7X7X7X7X",
"7X7X7X7X7X7X7X7X.X;X*X] $ i.P B z.q.c.A.Z.;.N.6 d E U W 2 -.G.y.d.b.=.b.r.` g.+ [ ;X+X+X7X7X7X7X7X7X",
"7X7X7X7X7X7X7X7X'.|.&X] $ p.d.M e.G m.U.M.3.N.6 U ' x W 8 >.T.x.C.Z.D w.Z u.z.+ [ XX|.OX7X7X7X7X7X7X",
"7X7X7X7X7X7X7X7XXX{.;X] X p.M.Z M b m.U.x.t.x.6 d E U W 9 >.Y.x.C.Z./ / / p.x.+ [ `.'.+X7X7X7X7X7X7X",
"7X7X7X7X7X7X7X7X}. X+X! . p.0.,.m.=.N.C.2.t.x.6 v U U W 9 -.U.a.N.U.r r.c.8.6.+ m #.`.[.7X7X7X7X7X7X",
"7X7X7X7X7X7X7X7X)./.].f # y.0.2.U.3.N.x.K J.H.6 d !.U ~ 8 q d.O.K.A.,.M.M.0.z.+ f ~.`.].7X7X7X7X7X7X",
"7X7X7X7X7X7X7X7X<X&X2X).x d.F.2.M.y.M.7.G !.K.q d W R R < *.t.!.J.A.<.M.V.V.5.# ] 4X4X;X7X7X7X7X7X7X",
"7X7X7X7X7X7X7X7X&X&X1X).p k.Q.D.Y.D.F.m.J.O.P.t.) ' E R < q S F J N.2.M.C.0.a.# ] -X<X<X-X7X7X7X7X7X",
"7X7X7X7X7X7X7X7XXXOX+X$.N l.W.r.W.m.I.L.I.t.L P._ ' W W < 7 u.t.t r.2.V.C.0.a.# #.;X&X+X,X7X7X7X7X7X",
"7X7X7X7X7X7X7X7XOX%X:X).N k.F.l.F.l.G.P.I.d.` u.} ' ' R - 9 j.x.t r.2.0.0.0.a.@ #.<X@X#X:X7X7X7X7X7X",
"7X7X7X7X7X7X7X7X+X$X%X$.s i.V.b.S.a.N.p.h.L r.q j ~ ..Y ; &.e.V Z n.3.M.V.0.5.# X.#XOX+X7X7X7X7X7X7X",
"7X7X7X7X7X7X7X7X_.~.}.] $ g.S.a.b.;.B.F.G.b.m.=.M Q ~ W < 3.A.z.x.C.>.7.0.C.a.# ! ].`.).7X7X7X7X7X7X",
"7X7X7X7X7X7X7X$X#X[.2X^.@ i.B.J ( F b.S.S.B.b.=.b W ~ Y ; >.A.v.7.M.V D r.M.y.# $.-X>X*X&X7X7X7X7X7X",
"7X7X7X7X7X7X7X@X.XXX-X^.o q.a.F Z / d.C.C.M.7.6 s W ~ ^ < 4.C.8.7.c./ D F d.y.# +.oX#X;X=X7X7X7X7X7X",
"7X7X7X7X7X7X7X+X'.oX@X$.o S P C 7.w.,.M.M.M.8.6 d ~ ~ W < &.U.0.7.M.e.z.e.K t.@ n `.;X*X&X7X7X7X7X7X",
"7X7X7X7X7X7X7X#XoX+X&X@.. M _ }  . .K ` ` K z.6 3 R ~ I 1 &.k.u.u.g.J j.u._ D u ] *X=X#X$X7X7X7X7X7X",
"7X7X7X7X7X7X7X7X.X[.[.| . T ) G K ` D K K K y.6 3 Y ~ I 2 =. ./ / ( _ _ o.' Q p ] {.`.).}.7X7X7X7X7X",
"7X7X7X7X7X7X7X7X1X4X6X}.. Z P B 2.w.;.M.M.<.9.0 d W W R e 4.n.a.1.c.t.1.w.` u.u _.>X+X_.7X7X7X7X7X7X",
"7X7X7X7X7X7X7X7X6X5X2X[.X y f.N V M :.V.V.,.>.6 3 x Q x 9 *.a.6.6.v.D t C P 1.u ].4X*XXX7X7X7X7X7X7X",
"7X7X7X7X7X7X7X7X2X4X&X[.X e 9.S M b =.8.8.:.} 4 3 Y Q U 2 t O.w.,.5.H m D =.y u `.>X;XoX7X7X7X7X7X7X",
"7X7X7X7X7X7X7X7X{.XX[.'.X 1 0 * 4 4 = 0 0 5 2 * , Y Y Y ; * t = = *.4 : 4 = 8 u {.+X#X#X7X7X7X7X7X7X",
"7X7X7X7X7X7X7X7XXX.X'.[.$ s : - ; ; ; : < ; - - s ^ Y x s ; > : : > > ; : ; , a ].#X+X;X7X7X7X7X7X7X",
"7X7X7X7X7X7X7X7X>X&X#X|.f c k k x x x U x v Y Y Y R R R W Q E E Q Q Q Q Q Y v c  X*X*X=X7X7X7X7X7X7X",
"7X7X7X7X7X7X7X7X#X&X*X|.i c k f x x x ^ x x Y U ^ Y m Y R R Y Q Y R T T Y U Y c ].&X&X&X7X7X7X7X7X7X",
"7X7X7X7X7X7X7X7X7X7X7X7X7X7X7X7X7X7X7X7X7X7X7X7X7X7X7X7X7X7X7X7X7X7X7X7X7X7X7X7X7X7X7X7X7X7X7X7X7X7X",
"7X7X7X7X7X7X7X7X7X7X7X7X7X7X7X7X7X7X7X7X7X7X7X7X7X7X7X7X7X7X7X7X7X7X7X7X7X7X7X7X7X7X7X7X7X7X7X7X7X7X",
"7X7X7X7X7X7X7X7X7X7X7X7X7X7X7X7X7X7X7X7X7X7X7X7X7X7X7X7X7X7X7X7X7X7X7X7X7X7X7X7X7X7X7X7X7X7X7X7X7X7X",
"7X7X7X7X7X7X7X7X7X7X7X7X7X7X7X7X7X7X7X7X7X7X7X7X7X7X7X7X7X7X7X7X7X7X7X7X7X7X7X7X7X7X7X7X7X7X7X7X7X7X"
};
