/* XPM */
static char *result[] = {
/* columns rows colors chars-per-pixel */
"40 40 100 2 ",
"   c #9C6122",
".  c #9E6329",
"X  c #A26627",
"o  c #AC712A",
"O  c #B1752D",
"+  c #AD7334",
"@  c #B17637",
"#  c #B67B34",
"$  c #B97E36",
"%  c #B67A3B",
"&  c #B97E3B",
"*  c #BD8335",
"=  c #BD833B",
"-  c #BE883E",
";  c #C28532",
":  c #C2863E",
">  c #C4893D",
",  c #CA8C3A",
"<  c #D08F3D",
"1  c #D0923F",
"2  c #C38443",
"3  c #C58A42",
"4  c #CA8E44",
"5  c #C78749",
"6  c #C88649",
"7  c #C68B48",
"8  c #CA8C4A",
"9  c #C59344",
"0  c #CC9246",
"q  c #CB9A46",
"w  c #CD934A",
"e  c #CD9B4C",
"r  c #D29544",
"t  c #D69946",
"y  c #DA9947",
"u  c #D2964C",
"i  c #D39A4C",
"p  c #DB9D4B",
"a  c #D59B52",
"s  c #DA9D53",
"d  c #E19F4D",
"f  c #CCA04E",
"g  c #D2A34F",
"h  c #DDA24E",
"j  c #CEA251",
"k  c #D4A354",
"l  c #DDA353",
"z  c #D7AA55",
"x  c #DDA955",
"c  c #DAA359",
"v  c #DDAC5A",
"b  c #DDB15C",
"n  c #DFBB5D",
"m  c #E2A24E",
"M  c #E4A552",
"N  c #E9A654",
"B  c #E4AA55",
"V  c #E9AA55",
"C  c #E5AD5A",
"Z  c #EAAC5B",
"A  c #F2AE5B",
"S  c #E5B057",
"D  c #E8B357",
"F  c #E5B35D",
"G  c #EAB35D",
"H  c #E4BA5E",
"J  c #EBBA5E",
"K  c #F2B05F",
"L  c #F1B95F",
"P  c #E5B561",
"I  c #EBB562",
"U  c #E6BC63",
"Y  c #EABB65",
"T  c #EDBD69",
"R  c #F3B563",
"E  c #F1BB64",
"W  c #F4BD6B",
"Q  c #FBBD6D",
"!  c #E5C062",
"~  c #EBC065",
"^  c #EDC26B",
"/  c #EBCB6E",
"(  c #F7C166",
")  c #F8C367",
"_  c #F2C36D",
"`  c #F9C36C",
"'  c #EECE71",
"]  c #F5C671",
"[  c #FAC571",
"{  c #F4CB73",
"}  c #FDCC76",
"|  c #FFCD78",
" . c #EFD173",
".. c #F3D376",
"X. c #F5D47B",
"o. c #F9D47C",
"O. c #F6D87E",
"+. c #FAD680",
"@. c #F7DB82",
"#. c #FADC84",
/* pixels */
"T T ~ T U U U U P Y J E L D V m V m V V B B B m m D S S S D F Y ^ /  . .O.O.@.#.",
"~ T T ~ ^ ! ! U U H G G D V B m m m m m B m m D m m x S D D Y T ' '  .O.O.O.@.@.",
"T T T T T ! ! T U U S S B B B B m m m D m D D D S h z S J E ` [ ' ' X.X.X.X.O.@.",
"Y P U P U U U U ! H S v D D D B D D D D D D D H D D D D E ` } } { ' ..X.X.X.X.X.",
"P P P P U U U U U U P H H G H D D H J J H ! J J Y J Y E ] | | } ..X.X.X.X.+.+.+.",
"b P P T U T T T ^ U U T Y Y Y U D H J J ! J ! ) T T T _ [ { [ ] { X.o.o.X.+.+.+.",
"b P P U U T U U ! U U U Y ~ U U n n ! ! ! ! ) ~ J Y T U Y T T _ ] ' { X.{ +.+.+.",
"c b P P T U U U U U H H U H ! ! ! ! ! ! ! J ! ! F H P F v b I Y T ^ ^ ' ] ] { +.",
"c z b b P Y Y Y Y T T U ! ~ ~ U ! U n n U U ^ ^ U F P T T P P P P T T T T ^ T / ",
"z c v b v P P P P Y T U Y T T H ! ! ! U U ^ ^ ] / ~ T T ^ Y I I T T ] _ ] _ ] ] ",
"c k c c v v C v C I Y Y T T T Y U Y U Y ^ T W W ] _ T W W T Y T T T W W ^ T ] ] ",
"j j j j i k k l k v v P P T Y P H H P U P n P P ] W Y I I P I T T T T I T T T T ",
"j j f 7 e e i p u p l M v C C v B C D C Z P Z P T I I P P I T I I I P P F I I P ",
"j j f 9 9 w u i p l M s l B B c l B B C Z I I I P I I T I T W W I P C C C G P P ",
"j j f e e w u i p d d d s M B M M N B V K K K K c Q W W W W W W I K C C C C G G ",
"j j j f f a a i 4 i u i p M M B C B V N c N c Z c Q Q [ Q Q Q W R I C B C G D D ",
"e j j j a j k a s a u i t l m m N M M x M M M M M G Q Q Q Q Q R A A N N N V D B ",
"j k k j j j c k u a a i p h m h M M B B V C B N N Z K K A K K A A A N m V V B B ",
"z k k j a k c c u a a p s m m h M M C N B B M m p m N N N N N N N m m d m m V B ",
"g f j j c c c a a c c p p l l m l l M N m t r 1 < y p p d d N N m N N N m m m B ",
"f e k k c k a 9 w u k p p l p p m M M M h i r , , r p d d N N d N N N m M B V B ",
"e e a k k f 7 = # > u a a p i r h h M B B m p p r d d s N N N d d d d d m m M M ",
"9 9 9 a a 9 > * # > w u r r r r p h M B Z V V N d d N N N N N d d d y y p m M x ",
"- - - 9 w e 3 - > 0 0 0 > 4 r u t p h M B C Z B N N Z N N N A N N M d m M Z Z C ",
"& 3 w w w 8 w e > q 4 : > u u p h r t M Z Z M M Z N N M N N N N M N Z Z Z C C C ",
"3 7 w w w 8 9 w u 0 , 3 0 , > l l p p M B V V G d d d d M N N N Z Z Z K I I I P ",
"7 7 7 8 8 w w w i 0 > 4 0 : 3 l r r p h l h m V d y p d s N N N N B Z G R T I I ",
"2 2 2 - 4 w u w > u 0 > 3 0 8 u * , t m h p y h m d d m N N N N B Z I I T I P P ",
"6 2 = 2 7 0 u r > u 0 > 4 4 2 3 , r h h h p p p N N N N N N N N B D P Y Y Y P b ",
"6 6 2 : 7 0 w 4 0 , > r w * # 3 p t t 1 r t t h d d s d d d d p 0 i k v b Y ^ / ",
"6 6 6 2 2 < 4 0 r 0 > u u 2 = w M p , ; , r p t p y y p d M d d 0 q 9 q j b T ^ ",
"2 2 2 2 : 6 4 0 4 i u 3 w a a a c r > ; 4 p p t p p M N Z Z K Z H v f 9 9 e v b ",
"6 2 6 , 4 3 > > w 4 8 w u u u 8 % .   # w w w u C C I I I R R E E Z l w q p v C ",
"= = : : 2 > > 2 6 4 w w 4 3 = # @ . . @ 7 w a C B C I G G I Y E [ I x h l Z I I ",
"$ $ = = : 2 2 : : > 4 : $ O o o % + @ 5 e a c P C G I G D G I [ ` P l h C I E I ",
"u u u a u a s a 4 3 > : $ # $ $ & - 8 s c c x C C G I G G G W [ E B p g C R E L ",
"a a a a s a s a u u u 8 u w 8 8 $ 3 a C C C Z G G F G E E W Q W G Z B B G E E E ",
"4 8 4 w 4 8 8 4 w u u s s s u 3 e a v x x F G I G D J E W [ W I B C D D G E E ( ",
"u u u u u u a u 8 8 w u u u 8 , M C C B C D G D G D E E W W I I B D G L L E ( ( ",
"2 6 4 4 u w 8 u w u u 4 3 4 8 a q h x x B I J B E E E E I G G G G G J L ) ) ) ) "
};
