/* XPM */
static char *result[] = {
/* columns rows colors chars-per-pixel */
"50 50 202 2 ",
"   c #0E0D13",
".  c #100F15",
"X  c #111016",
"o  c #15141A",
"O  c #18171E",
"+  c #19181F",
"@  c #17181E",
"#  c #1C1B23",
"$  c #201F27",
"%  c #201F28",
"&  c #222129",
"*  c #27262D",
"=  c #282732",
"-  c #2A2A33",
";  c #2C2D39",
":  c #33323C",
">  c #313036",
",  c #2F303C",
"<  c #4E2718",
"1  c #62321B",
"2  c #4C3A3C",
"3  c #533C3A",
"4  c #553C3A",
"5  c #563023",
"6  c #653623",
"7  c #6B3924",
"8  c #663825",
"9  c #733E26",
"0  c #73412A",
"q  c #7E4B2E",
"w  c #684538",
"e  c #794D37",
"r  c #7D523D",
"t  c #6E422F",
"y  c #363642",
"u  c #383743",
"i  c #3A3A44",
"p  c #3D3D4B",
"a  c #403F4D",
"s  c #463D44",
"d  c #513F42",
"f  c #3E424B",
"g  c #3C4147",
"h  c #42424D",
"j  c #4A444A",
"k  c #544346",
"l  c #55454B",
"z  c #5C4A4B",
"x  c #444453",
"c  c #464B52",
"v  c #4A4954",
"b  c #4D4C5B",
"n  c #4C4653",
"m  c #534A53",
"M  c #5C4D54",
"N  c #514F5C",
"B  c #5A4E5A",
"V  c #4D5158",
"C  c #53525D",
"Z  c #5C525C",
"A  c #674D49",
"S  c #6C514B",
"D  c #7A5344",
"F  c #74544C",
"G  c #7D584A",
"H  c #6B5454",
"J  c #63555B",
"K  c #6B595D",
"L  c #6D5758",
"P  c #745954",
"I  c #7B5C54",
"U  c #745C5B",
"Y  c #7C5E59",
"T  c #71575A",
"R  c #624F52",
"E  c #7C615E",
"W  c #4F4F61",
"Q  c #535364",
"!  c #5B5765",
"~  c #565669",
"^  c #57596C",
"/  c #5A5A6D",
"(  c #585B66",
")  c #5B5C71",
"_  c #505062",
"`  c #645A63",
"'  c #6C5D64",
"]  c #645D6A",
"[  c #675D69",
"{  c #725E62",
"}  c #5C6067",
"|  c #5E636A",
" . c #5F6271",
".. c #6A616C",
"X. c #61656C",
"o. c #72626A",
"O. c #796669",
"+. c #636374",
"@. c #6A6B7D",
"#. c #686774",
"$. c #756D78",
"%. c #6B757A",
"&. c #75757D",
"*. c #8D522E",
"=. c #844F32",
"-. c #84543C",
";. c #8C5639",
":. c #935634",
">. c #955836",
",. c #9C5C36",
"<. c #945B3C",
"1. c #9D5D39",
"2. c #955737",
"3. c #A25E3C",
"4. c #A15F37",
"5. c #9B603E",
"6. c #A4623C",
"7. c #AC673C",
"8. c #AD693F",
"9. c #B26B3F",
"0. c #825641",
"q. c #845B4B",
"w. c #8A5E4A",
"e. c #895B45",
"r. c #935E43",
"t. c #995F43",
"y. c #845E51",
"u. c #9B6344",
"i. c #9C664B",
"p. c #936147",
"a. c #8C6353",
"s. c #84645C",
"d. c #8B655A",
"f. c #846055",
"g. c #926552",
"h. c #9C6C54",
"j. c #956A5A",
"k. c #A36542",
"l. c #A96642",
"z. c #A66945",
"x. c #AB6943",
"c. c #A56C4D",
"v. c #AB6D4A",
"b. c #A0674C",
"n. c #B26D44",
"m. c #B66F47",
"M. c #B77146",
"N. c #BA7144",
"B. c #B4714B",
"V. c #BC734A",
"C. c #AB7557",
"Z. c #B87955",
"A. c #A86E52",
"S. c #876864",
"D. c #946D61",
"F. c #967469",
"G. c #947773",
"H. c #8A7574",
"J. c #AE7D62",
"K. c #AC7F6B",
"L. c #C3794E",
"P. c #C1774C",
"I. c #C67B51",
"U. c #C87C52",
"Y. c #B1856E",
"T. c #C1825C",
"R. c #C38966",
"E. c #6D6C81",
"W. c #737C81",
"Q. c #777C8A",
"!. c #7D898D",
"~. c #798488",
"^. c #818C8E",
"/. c #83878C",
"(. c #828D91",
"). c #839294",
"_. c #8B969A",
"`. c #8C9A9D",
"'. c #889598",
"]. c #8F9EA1",
"[. c #929EA1",
"{. c #8FA1A4",
"}. c #94A2A5",
"|. c #96A6A9",
" X c #9CAAAD",
".X c #98A8AB",
"XX c #9EAEB1",
"oX c #9FB0B2",
"OX c #A1AEB2",
"+X c #A4B2B5",
"@X c #A7B6B8",
"#X c #AAB6BA",
"$X c #ABBABD",
"%X c #A9B5B7",
"&X c #AEBEC1",
"*X c #B1BEC1",
"=X c #B3C2C5",
"-X c #B9C5C9",
";X c #BBC8CB",
":X c #BFCDD0",
">X c #C1CED2",
",X c None",
/* pixels */
",X,X,X,X,X,X,X,X,X,X,X,X,X,X,X,X,X,X,X,X,X,X,X,X,X,X,X,X,X,X,X,X,X,X,X,X,X,X,X,X,X,X,X,X,X,X,X,X,X,X",
",X,X,X,X,X,X,X,X,X,X,X,X,X,X,X,X,X,X,X,X,X,X,X,X,X,X,X,X,X,X,X,X,X,X,X,X,X,X,X,X,X,X,X,X,X,X,X,X,X,X",
",X,X,X,X,X,X,X,X,X,X,X,X,X,X,X,X,X,X,X,X,X,X,X,X,X,X,X,X,X,X,X,X,X,X,X,X,X,X,X,X,X,X,X,X,X,X,X,X,X,X",
",X,X,X,X,X,X,X,X,X,X,X,X,X,X,X,X,X,X,X,X,X,X,X,X,X,X,X,X,X,X,X,X,X,X,X,X,X,X,X,X,X,X,X,X,X,X,X,X,X,X",
",X,X,X,X,X,X,X,X,X,X,X,X,X,X,X,X,X,X,X,X,X,X,X,X,X,X,X,X,X,X,X,X,X,X,X,X,X,X,X,X,X,X,X,X,X,X,X,X,X,X",
",X,X,X,X,X,X,X,X,X,X,X,X,X,X,X,X,X,X,X,X,X,X,X,X X'.@X-X-X;X*X'.,X,X,X,X,X,X,X,X,X,X,X,X,X,X,X,X,X,X",
",X,X,X,X,X,X,X,X,X,X,X,X,X,X,X,X,X,X,X,X,X,X'.OX|.XX+X$X*X:X&XXX#X'.,X,X,X,X,X,X,X,X,X,X,X,X,X,X,X,X",
",X,X,X,X,X,X,X,X,X,X,X,X,X,X,X,X,X,X,X'.$X;X`.OXXXXX*XOX X@X$X*X$X[.$X#X+X,X,X,X,X,X,X,X,X,X,X,X,X,X",
",X,X,X,X,X,X,X,X,X,X,X,X,X,X,X,X,X,X X X.X@X}.+X*X X!.} } !. X;X X X+XXXoX`.,X,X,X,X,X,X,X,X,X,X,X,X",
",X,XE.Q x b b ,X,X,X,X,X,X,X,X,X#X X/.OX X#X X&./.] h n c h c ( %.XX X`.{.~.+X@X,X,X,X,X,X,X,X,X,X,X",
",X,XE.~ b ` ) ^ Q ,X,X,X,X,X,X$X#X=X}.OXOX[.X.! @.#.v : x C M n p ( '.XX`.}.:X@XXX,X,X,X,X,X,X,X,X,X",
",X,X+.^ M 1.j.O.+.) ,X,X,X,X XXX X}.OX_.} C | C i > > $ p k 6 -.P V h | !.@X XXX$X@X,X,X,X,X,X,X,X,X",
",X,X+.) m 2.n.k.y.$.+.+.,X(.`.|.%X X^.C v C s > > - % # f m 1 =.q.q.K f ( |.`.}.XX X,X,X,X,X,X,X,X,X",
",X,X) ) l 2.S.t.4.x.S.$. .#.(.OX$X`.c C n : > : - = # # p B 6 q.S.,.x.E c c ).|.|.~.!.,X,X,X,X,X,X,X",
",X,X) ) M 1.A.x.3.N.6.w.X.+.!.!.^.h c : % $ # $ + + O o a M 6 k.x.6.N.>.S x V ^.~.!..X}.,X,X,X,X,X,X",
",X,X/ ) B 3.L.N.3.V.N.*.e.' ~.].i h u & $ # + O O o o X a Z 6 x.M.6.N.>.<.P p c {..X`.+X+X,X,X,X,X,X",
",X,X~ ) M 3.U.m.6.P.V.:.,.i.] +.u p & & # # o o o X X . p J 8 n.m.7.P.2.4.k.B p (.}.{.oX@X,X,X,X,X,X",
",X,X~ / M 3.U.B.l.L.N.:.,.7.H a h - & # # @ o o o X .   p Z 8 m.V.l.P.:.4.9.w x X.|.{.|.OX,X,X,X,X,X",
",X,X~ ) M 3.U.V.6.P.V.=.<.9.0.C u & # # O o o o X X     a Z 8 m.V.x.V.-.A e.q z c ]..XoX@X,X,X,X,X,X",
",X,XQ ) M 3.U.V.1.I.b.M H u.<.! , & # # O o X .         p B 8 V.m.l.v.U K Z D q.i %.+XoX@X,X,X,X,X,X",
",X,XQ ) M k.U.V.<.U.j.B R L <.J y # # # o o o           p B 8 V.B.6.n.e.u.w.U p.p i (.'.'.,X,X,X,X,X",
",X,XQ ) R 3.U.B.;.V.B.r <.{ w.J y # # # o   . .         p B 6 c.d.I s.P s.s...K h :  X#X@X,X,X,X,X,X",
",X,XW / M 3.C.O.` ' o.' o.#.` Q : # # @ o . .           a _ 8 y.' ` ' ' o.o.+.] c g @X=X+X,X,X,X,X,X",
",X,XN ) M 3.V.d.H s.s.Y y.' ` ! y # # o o o . X         p B 9 V.v.l.B.-.u.t.K g.s f +XXX X,X,X,X,X,X",
",X,XQ ^ M 3.L.m.>.P.B.D 2.K p.L : # @ O O X X X         p B 9 V.B.x.V.Y I R Y l.j c |.{..X,X,X,X,X,X",
",X,Xb ) M 3.I.n.<.M.a.C M H >.P : $ + O o X o X .   .   p B 9 B.N.7.L.G Z U 1.l.2 c !.!. X,X,X,X,X,X",
",X,XW / M 3.Z.u.<.l.c.S I u.,.I ; # $ O O X o X . . . . p B 8 l.i.h.V.,.1.n.8.7.j g %.~.'.,X,X,X,X,X",
",X,XC ^ m 3.K.#.;.6.N.6.6.x.,.F ; # + + O o X X X X   o n ! e b.O.&.Z.5.x.N.9.6.j g (.`.}.,X,X,X,X,X",
",X,XQ ) J k.Y.+.-.x.P.6.6.8.6.F ; $ # # O X o o X X . + ~ $.D u.O.Y.c.5.n.9.N.c.j %.=X;X$X@X,X,X,X,X",
",X,X$.E.O.j.H.H.d.x.V.8.6.8.,.F ; # # @ O o o X X X . + ! ..q.y.G.H.S.Y.Y.T.R.C.M &.&X=X#X@X,X,X,X,X",
",X,XE.Q.J D F.Y.Y l.P.6.7.8.6.F ; # # # O O o X X X . # ] ! 4 G.T.i.E h.B.R.T.k.l ~.;X+X.XOX,X,X,X,X",
",X,X#.+.O.D.S.g.S.M.N.6.5.8.>.S ; # # # @ o O O o o . # C ] q.j.f.S.D.C.T.T.T.Y.V &.*X+XOX@X,X,X,X,X",
",X,X~ / M u.A.G r.V.v.S L t.:.S - # # # # o o o o o . o a b 0 v.i.p.Z.6.l.N.M.u.j V `.`._.,X,X,X,X,X",
",X,XX.+.J c.U.h.A.L.g.B M H ,.S - $ % # # # o o o o X # v ! t Z.Z.A.Z.w.I h.Z.h.m X..X X}.,X,X,X,X,X",
",X,X~ ~ l 3.I.k.x.N.v.0.:.T p.A - $ $ # # # o o o o o o p n 8 n.B.6.B.U Z ` i.u.j | $X@X#X@X,X,X,X,X",
",X,X~ Q l 3.A.O.' { O.U E ..[ m - $ $ # # o # # # o o # i m 8 n.N.6.N.q.r.q.Y r.: c !.oX$X%X,X,X,X,X",
",X,XQ Q k 1.n.y.I E E U O...] W = % $ # # O # # # o o # y n 7 k.g.q.g.q.q.a.' P p f }.@X+XoX,X,X,X,X",
",X,X^ W k 1.P.8.x.N.z.e.,.L g.R - % $ $ $ # # # # # # # y n 9 y.[ ` ` ......X.! f V }.}.`.{.,X,X,X,X",
",X,X/ Q l ,.V.x.9.N.f.M S H 6.z - & $ $ $ # # # # # # # y m 9 6.z.;.z.r.-.<.' E p X.+X}.~.OX,X,X,X,X",
",X,X/ Q k ,.N.7.8.N.u.R U <.6.k = & % $ $ $ $ # # # # # y j 0 r.k.1.n.I S F I -.y ~.;X#X`.,X,X,X,X,X",
",X,X) W d ,.N.6.6.9.9.*.9.5.6.k = & & % & $ $ $ $ # # $ y m 6 T a.*.6.F N H e r u &.&X&X|.,X,X,X,X,X",
",X,X) _ k :.g.1.6.9.9.:.9.6.6.d = & & & & % & % % $ % % : n < 8 9 1 9 9 5 6 1 8 i W.XXXX X,X,X,X,X,X",
",X,X+.W k 2.D.,.6.9.9.:.9.5.5.d = & & & & & & & & & & % u m 2 3 4 2 4 4 3 3 3 2 f ~.OX X$X,X,X,X,X,X",
",X,X#.b d 2.n.>.,.7.u.e r w k g = * * & & & & & & & & & u ~ / / / / / / / / Q Q x !.@X@X$X,X,X,X,X,X",
",X,X@._ d r D A l m h b f c f g ,X,X,X,X,X,X- - = = = * ,X,X,X,X,X,X,X,X,X,X,X,X,X(.@X+XOX,X,X,X,X,X",
",X,XE.W x x x x h x ,X,X,X,X,X,X,X,X,X,X,X,X,X,X,X,X,X,X,X,X,X,X,X,X,X,X,X,X,X,X,X,X,X,X,X,X,X,X,X,X",
",X,XE.b a a ,X,X,X,X,X,X,X,X,X,X,X,X,X,X,X,X,X,X,X,X,X,X,X,X,X,X,X,X,X,X,X,X,X,X,X,X,X,X,X,X,X,X,X,X",
",X,X,X,X,X,X,X,X,X,X,X,X,X,X,X,X,X,X,X,X,X,X,X,X,X,X,X,X,X,X,X,X,X,X,X,X,X,X,X,X,X,X,X,X,X,X,X,X,X,X",
",X,X,X,X,X,X,X,X,X,X,X,X,X,X,X,X,X,X,X,X,X,X,X,X,X,X,X,X,X,X,X,X,X,X,X,X,X,X,X,X,X,X,X,X,X,X,X,X,X,X",
",X,X,X,X,X,X,X,X,X,X,X,X,X,X,X,X,X,X,X,X,X,X,X,X,X,X,X,X,X,X,X,X,X,X,X,X,X,X,X,X,X,X,X,X,X,X,X,X,X,X"
};
