/* XPM */
static char *d0e5d4c9c11640d5d35645d081245aff41iTvwGYWp28lL43[] = {
/* columns rows colors chars-per-pixel */
"40 40 219 2 ",
"   c None",
".  c #100F0B",
"X  c #191306",
"o  c #121314",
"O  c #1B1B1C",
"+  c #08090A",
"@  c #201D13",
"#  c #241C09",
"$  c #2D271C",
"%  c #322916",
"&  c #382E10",
"*  c #242424",
"=  c #2D2C2C",
"-  c #282827",
";  c #35322D",
":  c #3A362B",
">  c #3F3829",
",  c #2F3030",
"<  c #343433",
"1  c #3C3C3C",
"2  c #383634",
"3  c #322F25",
"4  c #523B08",
"5  c #473A16",
"6  c #463D26",
"7  c #453F34",
"8  c #534319",
"9  c #5B4716",
"0  c #574417",
"q  c #64480B",
"w  c #624B1A",
"e  c #6A551D",
"r  c #7A5A15",
"t  c #4C4129",
"y  c #53462C",
"u  c #564927",
"i  c #43423D",
"p  c #494334",
"a  c #5C4C33",
"s  c #5A4D3B",
"d  c #5B5136",
"f  c #69572A",
"g  c #775C26",
"h  c #6B5936",
"j  c #665639",
"k  c #7C6323",
"l  c #7B632A",
"z  c #796627",
"x  c #796637",
"c  c #434343",
"v  c #4B4943",
"b  c #4E4D4C",
"n  c #494742",
"m  c #504F4E",
"M  c #51514F",
"N  c #5A5345",
"B  c #545352",
"V  c #5D5C5B",
"C  c #595856",
"Z  c #47554B",
"A  c #635A4B",
"S  c #615F5C",
"D  c #766546",
"F  c #78715F",
"G  c #756B52",
"H  c #5F6061",
"J  c #646362",
"K  c DimGray",
"L  c #706F6D",
"P  c #72716E",
"I  c #747474",
"U  c #687B7C",
"Y  c #986907",
"T  c #896619",
"R  c #946C15",
"E  c #A67307",
"W  c #8A6C26",
"Q  c #846825",
"!  c #926F22",
"~  c #887129",
"^  c #977928",
"/  c #9E7C2C",
"(  c #866A3C",
")  c #9F7F3A",
"_  c #A37D29",
"`  c #A37E30",
"'  c #816C46",
"]  c #897947",
"[  c #977C4F",
"{  c #B97F5C",
"}  c #8D7467",
"|  c #BB8819",
" . c #9D803F",
".. c #9C822F",
"X. c #A5842C",
"o. c #AC862D",
"O. c #A98835",
"+. c #B28E3A",
"@. c #B18D30",
"#. c #B99533",
"$. c #B19233",
"%. c #BFA03B",
"&. c #C78B0A",
"*. c #C88C0A",
"=. c #DE9D0F",
"-. c #D79A16",
";. c #C48E18",
":. c #E4A316",
">. c #E7A71D",
",. c #D59E27",
"<. c #C89B33",
"1. c #D09B2C",
"2. c #DFA321",
"3. c #CAA63B",
"4. c #DAA939",
"5. c #D7B03E",
"6. c #EDAE24",
"7. c #ECAE2A",
"8. c #FDBC2E",
"9. c #F5B326",
"0. c #E4AE37",
"q. c #E8B63C",
"w. c #FFBF33",
"e. c #F2B738",
"r. c #9C8342",
"t. c #A88446",
"y. c #AA9544",
"u. c #B49546",
"i. c #BE8E5F",
"p. c #B99755",
"a. c #A38B50",
"s. c #B4A04E",
"d. c #89867A",
"f. c #968A6F",
"g. c #A7916B",
"h. c #B6AA78",
"j. c #BCAB66",
"k. c #C69D47",
"l. c #C59B59",
"z. c #D8B645",
"x. c #D2B658",
"c. c #C9AA49",
"v. c #C49E68",
"b. c #CB8A69",
"n. c #E08B6F",
"m. c #EC9778",
"M. c #CDA260",
"N. c #DABE66",
"B. c #C7A674",
"V. c #C7B776",
"C. c #E6B468",
"Z. c #EABC78",
"A. c #E4A47E",
"S. c #DEC14C",
"D. c #FBCB46",
"F. c #F9CD4C",
"G. c #F8C747",
"H. c #FDD34D",
"J. c #F5D14F",
"K. c #F5CC55",
"L. c #EFD158",
"P. c #FEDD56",
"I. c #FBD35B",
"U. c #FFDE59",
"Y. c #F7D152",
"T. c #ECC049",
"R. c #FFE15A",
"E. c #E7C866",
"W. c #FEDD64",
"Q. c #F7D669",
"!. c #E1C673",
"~. c #F8DA75",
"^. c #FFE367",
"/. c #FFE568",
"(. c #FFE87C",
"). c #FFE576",
"_. c #0A6793",
"`. c #22709C",
"'. c #327FA1",
"]. c #4E7A8C",
"[. c #6F878C",
"{. c #5A91AB",
"}. c #5287A2",
"|. c #669DB7",
" X c #40A2D2",
".X c #9E9B99",
"XX c #93928F",
"oX c #B29D83",
"OX c #B6A997",
"+X c #88A5B5",
"@X c #AAAAAB",
"#X c #B8B9BA",
"$X c #B9B7A8",
"%X c #D8BD94",
"&X c #C9B18D",
"*X c #E9A884",
"=X c #F9BD93",
"-X c #F3AC86",
";X c #C6BBA7",
":X c #DFC094",
">X c #F8CA87",
",X c #E6C698",
"<X c #FACB95",
"1X c #FCD49F",
"2X c #F1CF88",
"3X c #FFEB91",
"4X c #FFE882",
"5X c #D7CCBB",
"6X c #E7CCA3",
"7X c #FEDAA5",
"8X c #FFDDAA",
"9X c #FAD5A6",
"0X c #ECD9BE",
"qX c #FEE9AB",
"wX c #FFE1B6",
"eX c #81BAD7",
"rX c #DCDCDC",
"tX c #C3C3C4",
"yX c #F0E3D1",
/* pixels */
"                                                                                ",
"                          X x ]   z 3.$.5./ #.#.z 5                             ",
"                            ~ +.N.E.Y.P.H.D.H.J.S.S.z.c.%...8                   ",
"                    J d.I d.f.h.Q.R.R.U.P.R.R.R.P.D.D.D.#.8                     ",
"                    j !.qXqX3X^.R.R.R.R.P.R.R.P.P.P.P.U.J.3.~                   ",
"                      T G.P.U.U.P.R.P.R.R.P.R.R.R.P.U.U.R.W.z.^ e               ",
"                      k q.J.P.P.R.R.P.P.R.P.R.R.P.P.R.R.3X3XV.y 5               ",
"                  # 9 r.~.I.P.U.R.P.R.R.P.R.P.D.U.D.I.^.^.I.).h.;               ",
"                    G !.Q.~.W.~.4X(.(.).).^.F.0.I.E.T.~.K.U.D.I.s.y             ",
"                  x x.H.4XI.G.W.Q.E.x.x.s.y.+.k <.Z.+.E.u.q.F.q.X.W             ",
"                  o.<.N.W.4.X.x d p p i M V b B 8 c.l O.a.y g X.X.g             ",
"                k k h L.3.u = m .XI I #XrXrXV J m f l : x N 1 , 8 e             ",
"                X   y.z.f J n #X#XJ K @X5X@XC V V n 8 : : p c 1 O               ",
"                    3.X.D K 7 B Z ; ; : > 6 6 s A j 8 ] y.X./ / k               ",
"                  k ^ X.f d h t j ' B.j.D F U Z p.C.[ V.I.H.e.2.Q &             ",
"                  0 e z X.[ f.XXd.,X7X9Xf.#XeX_.F Z.u.j.r.5.6.-.9               ",
"                      f @.g.5X+X].%X7X7X;X{.`.`.$X>Xp.) ( o.=.| q               ",
"                      Q T g.yX}.'.%X8X7X0X{. X|.5X>Xl.f ( _ | r q               ",
"                      5 W oX9X@X[.,X8X8XwX;X[..X6XZ.M.[ t.T T q 0               ",
"                        5 } b.m.*X1X<X7X9X=Xm.n.{ v.C.k.r 9 4   X               ",
"                        + } *X-X<X9X1X7X9X<Xm.b.i.C.u.k r @                     ",
"                          S ;X6XwX7X,X%X9X7X%Xj.M.k.k 9 t ,                     ",
"                            7 XXOX&XOX&X&XB.[ a ` ~ 3 O 2 c                     ",
"                                  * 7 n 7 : < = W 6 1 o < b                     ",
"                                    < = < 1 c n 6 > c   = B ,                   ",
"                                  - b < < b J J < = n   * b b                   ",
"                                = B P B c J J L v * 2   o = 1                   ",
"                                < V J C b J c P V *                             ",
"                                < 7 c c < n < V J <                             ",
"                                c O.g c 7 ! R s K n                             ",
"                              1 A 4.Q c u 7.:.g J B                             ",
"                              2 ] q.j c g 6.-.e H C O                           ",
"                              s h k 7 2 6 f 5 % p A                             ",
"                                y u y y a w T Y g D                             ",
"                                ( q.7.;.| 2.6.:.*.q                             ",
"                                D e.8.,.R k.w.7.=.E                             ",
"                                j 0.8.9.;.` G.8.:.*.4                           ",
"                                  1.w.6.*.e ` 4.;.Y                             ",
"                                  g Q w &     % $ .                             ",
"                                  $ 7 2 o     G A o                             "
};
