/* XPM */
static char *b273fecc7c0b494cb5bbdd7510d0e0cbWw0wRkCdJCM4NNvU[] = {
/* columns rows colors chars-per-pixel */
"40 40 210 2 ",
"   c None",
".  c #080705",
"X  c #130C01",
"o  c #1C1607",
"O  c #1B1B1B",
"+  c #131314",
"@  c #0C0C10",
"#  c #312307",
"$  c #2A2315",
"%  c #3B3216",
"&  c #232323",
"*  c #2B2A25",
"=  c #2C2C2C",
"-  c #312E29",
";  c #34312C",
":  c #3A3526",
">  c #333332",
",  c #3C3C3C",
"<  c #383837",
"1  c #45370D",
"2  c #503704",
"3  c #473917",
"4  c #503F12",
"5  c #4A3D24",
"6  c #433C29",
"7  c #433D34",
"8  c #5C440B",
"9  c #544212",
"0  c #574817",
"q  c #4D4018",
"w  c #624505",
"e  c #664906",
"r  c #79570A",
"t  c #624B16",
"y  c #6A5518",
"u  c #7B5D1A",
"i  c #7B631E",
"p  c #77611B",
"a  c #534425",
"s  c #594928",
"d  c #46433D",
"f  c #4A4536",
"g  c #5A4B32",
"h  c #5B4D3A",
"j  c #5B5033",
"k  c #695627",
"l  c #775D22",
"z  c #695736",
"x  c #7D6423",
"c  c #7A6529",
"v  c #786539",
"b  c #3E3F42",
"n  c #3F4042",
"m  c #434342",
"M  c #4E4D4C",
"N  c #4B4844",
"B  c #555149",
"V  c #4F5052",
"C  c #545452",
"Z  c #5D5D5D",
"A  c #5A5956",
"S  c #45544A",
"D  c #635A49",
"F  c #615F5C",
"G  c #79715F",
"H  c #776A50",
"J  c #5F6061",
"K  c #646362",
"L  c DimGray",
"P  c #72726E",
"I  c #747373",
"U  c #687C7D",
"Y  c #966804",
"T  c #83651C",
"R  c #8A6817",
"E  c #966F16",
"W  c #8D670D",
"Q  c #A77401",
"!  c #8A6D22",
"~  c #816726",
"^  c #8A7124",
"/  c #9A7B23",
"(  c #856A3B",
")  c #907F3F",
"_  c #A37D27",
"`  c #887848",
"'  c #90774C",
"]  c #8E7567",
"[  c #BB870F",
"{  c #9E8335",
"}  c #A6842A",
"|  c #AA8629",
" . c #B8932D",
".. c #A4833E",
"X. c #A28434",
"o. c #B79435",
"O. c #B08F32",
"+. c #C88C03",
"@. c #C78D03",
"#. c #D99A07",
"$. c #C38E14",
"%. c #D99F1A",
"&. c #CE981F",
"*. c #DFA31A",
"=. c #E5A40E",
"-. c #EDAE1C",
";. c #E2A415",
":. c #F4B31F",
">. c #C99C2F",
",. c #C9A73A",
"<. c #D8A734",
"1. c #D7A932",
"2. c #EEB021",
"3. c #FDBD2A",
"4. c #F5B728",
"5. c #E5AF34",
"6. c #E8B83B",
"7. c #EEB431",
"8. c #FFC02C",
"9. c #FFC032",
"0. c #9C8640",
"q. c #A9894A",
"w. c #AB9642",
"e. c #B59644",
"r. c #BD885E",
"t. c #B89855",
"y. c #B5A14D",
"u. c #868376",
"i. c #978B6F",
"p. c #A8926B",
"a. c #B8AB79",
"s. c #BDAC66",
"d. c #C79E45",
"f. c #C49A56",
"g. c #D6B645",
"h. c #C8A85A",
"j. c #D3B758",
"k. c #D1A641",
"l. c #C69F67",
"z. c #CC8B69",
"x. c #ED9879",
"c. c #E18C70",
"v. c #DBBF66",
"b. c #C8A775",
"n. c #C8B876",
"m. c #C4A06A",
"M. c #E7B568",
"N. c #E6B07B",
"B. c #DFC24B",
"V. c #FACB44",
"C. c #F9CF4B",
"Z. c #F7C745",
"A. c #FDD44C",
"S. c #F5D24E",
"D. c #F5CD54",
"F. c #EFD258",
"G. c #FEDD54",
"H. c #FBD45B",
"J. c #FEDB5C",
"K. c #F7D251",
"L. c #ECC147",
"P. c #FFE057",
"I. c #FFE15A",
"U. c #E7C966",
"Y. c #FBDA66",
"T. c #E6C476",
"R. c #F8DB76",
"E. c #FFE367",
"W. c #FFE668",
"Q. c #FFE97B",
"!. c #FFE577",
"~. c #136D9A",
"^. c #4D7B8D",
"/. c #2E80A2",
"(. c #70888D",
"). c #5A92AC",
"_. c #5188A3",
"`. c #669EB8",
"'. c #3EA3D3",
"]. c #8F8C81",
"[. c #999897",
"{. c #AA9C8D",
"}. c #B7AA98",
"|. c #89A6B6",
" X c #ABABAC",
".X c #B9BABB",
"XX c #BAB8A9",
"oX c #D9BE95",
"OX c #CAB28E",
"+X c #EAA985",
"@X c #F6B58D",
"#X c #C7BCA8",
"$X c #F8CB88",
"%X c #E5C598",
"&X c #FAC497",
"*X c #F4D08C",
"=X c #FFEC92",
"-X c #FFE983",
";X c #CFC7BC",
":X c #E8CDA4",
">X c #FEDAA5",
",X c #FFDEAA",
"<X c #F9D4A4",
"1X c #E6D6BD",
"2X c #FDEDAA",
"3X c #FFE2B4",
"4X c #82BBD8",
"5X c gray81",
"6X c #F0E4D2",
"7X c gray88",
/* pixels */
"                                                                                ",
"                            1 i o. ./ g.O.,.x   ` c X                           ",
"                  1 { ,.,.B.B.B.S.A.V.A.S.S.U.U.o.^                             ",
"                    9  .V.V.A.G.P.P.I.P.P.G.P.R.a.i.u.I ].K                     ",
"                  ^ k.S.G.G.G.P.P.P.P.P.P.P.P.I.W.=X2X2XU.z                     ",
"              y / g.Y.E.P.P.P.G.P.P.P.P.P.P.P.P.P.P.G.L.R                       ",
"              1 0 n.=X=XP.P.G.G.P.P.P.P.P.P.P.P.P.P.S.6.T                       ",
"              * a.R.H.E.E.J.V.J.A.P.P.P.P.P.P.P.P.G.H.R...t o                   ",
"            0 t.H.V.G.D.R.L.U.H.5.A.W.W.Q.-X-X-X!.Y.R.Y.T.`                     ",
"            ^ } 6.S.6.e.U.o.M.,.x O.w.y.y.B.U.Y.Y.Z.J.-XD.j.v                   ",
"            y | } x a q.| v k.0 C M C C S 7 h j c | 1.Y.v.>.O.                  ",
"            y 9 * , B v : c k V K F 7X7X.XI I [.V * s ,.F.k u i                 ",
"              + < , f : ; 9 f K Z Z  X5X XL K .X.Xd K s g.o.  X                 ",
"              i } / | w.` q D z g 5 % % : - ; m C , L H | ,.                    ",
"            % T *.7.A.Y.n.{ M.t.B ^.G ` l.b.H k a z g k | / x                   ",
"              8 %.2.1.0.s.q.N.G ~.4X.X] >X>X%Xu.].i.0.} i t 0                   ",
"              w Q =.>.( ) t.$XXX~.~.).#X>X,X%X_.|.;Xp. .y                       ",
"              8 W [ _ ( k t.$X1X`.'.).1X,X,XoX~._.6Xp.R ~                       ",
"              8 w W W ) q.f.N.:X{.(.;X3X,X,X%X(.}.<X{.! 4                       ",
"              X   2 w r f.M.f.r.c.x.@X>X>X*X<X+Xx.z.] 4                         ",
"                    o u p e.M.z.z.+X&X>X,X>X>X&X+X+X] .                         ",
"                    = 5 0 x k.h.l.oX>X<XoX%X,X3X:X#XZ                           ",
"                    , > o * ! } s 0.a.OXOX}.OX}.].d                             ",
"                    M = @ < 5 R = = > 7 7 < &                                   ",
"                  = C &   m ; 6 m m < > * =                                     ",
"                  M C O   m & > K K M = > M &                                   ",
"                  < * .   > & N I K K m V P V &                                 ",
"                            O Z I , K M C K Z >                                 ",
"                            - K Z = m > 7 b 7 >                                 ",
"                            m L h E E : m l ..d                                 ",
"                            M L k =.2.s m ~ 5.D ,                               ",
"                          O A K y #.2.x b z 7.` ;                               ",
"                            D N # 1 k 5 > 7 ~ z h                               ",
"                            H u Y W 4 s s 5 s 5                                 ",
"                            e +.;.-.*.$.&.2.6.(                                 ",
"                            Q #.4.3.d.W %.3.6.(                                 ",
"                          2 +.=.3.Z._ +.2.3.5.k                                 ",
"                            Y +.1...r +.-.3.<.                                  ",
"                            . $ $     # t T l                                   ",
"                            . D H     @ ; 7 $                                   "
};
