/* XPM */
static char *result[] = {
/* columns rows colors chars-per-pixel */
"20 21 118 2 ",
"   c #39CDE5",
".  c #4BCFEB",
"X  c #48D0EC",
"o  c #4AD1EE",
"O  c #51D1EB",
"+  c #53D1EB",
"@  c #56D2EC",
"#  c #5BD0E9",
"$  c #5DD1E8",
"%  c #59D4EC",
"&  c #5FD5ED",
"*  c #53D1F0",
"=  c #64D3EA",
"-  c #62D4EA",
";  c #66D4EB",
":  c #66D5EB",
">  c #65D5EC",
",  c #67D7EC",
"<  c #6BD6ED",
"1  c #6AD5EF",
"2  c #6BD7EF",
"3  c #68D8EF",
"4  c #6FD8ED",
"5  c #76DAED",
"6  c #7BDCEF",
"7  c #61D5F0",
"8  c #65D7F1",
"9  c #6AD8F1",
"0  c #6BD9F3",
"q  c #76DDF5",
"w  c #77DDF6",
"e  c #79D8F3",
"r  c #7EDFF8",
"t  c #8CDBEF",
"y  c #88DDF0",
"u  c #8BDEF3",
"i  c #88DEF9",
"p  c #8BDFF9",
"a  c #8DDDF8",
"s  c #8FDFF9",
"d  c #95DFF4",
"f  c #8EE0F1",
"g  c #8CE2F6",
"h  c #87E0F9",
"j  c #8DE0F9",
"k  c #91E1F3",
"l  c #94E4F6",
"z  c #94E5F7",
"x  c #9EE3F3",
"c  c #9EE4F3",
"v  c #92E3F8",
"b  c #95E0F8",
"n  c #97E6F8",
"m  c #97E7FA",
"M  c #97E6FB",
"N  c #99E6F9",
"B  c #99E6FA",
"V  c #9AE6FA",
"C  c #9BE7FB",
"Z  c #9EE7F9",
"A  c #9EE6FA",
"S  c #9BE8FB",
"D  c #9FE9FA",
"F  c #ABE7F6",
"G  c #AEE6F7",
"H  c #A0E7F9",
"J  c #A2E6F8",
"K  c #A0E9FB",
"L  c #A3EAFB",
"P  c #A5EBFA",
"I  c #A4EBFB",
"U  c #A6EAFB",
"Y  c #A6EBFB",
"T  c #A0EAFC",
"R  c #ACE8FA",
"E  c #AEEAFA",
"W  c #A8ECFB",
"Q  c #ACECFB",
"!  c #BAE9F4",
"~  c #BCECF7",
"^  c #B3E8F8",
"/  c #B3EDFB",
"(  c #BAE9F9",
")  c #BAEAF8",
"_  c #BBEAF8",
"`  c #BEE8F9",
"'  c #B8EDFB",
"]  c #BFECFB",
"[  c #C2E7F6",
"{  c #C1EEFB",
"}  c #C3EFFB",
"|  c #C6EDF9",
" . c #C7EFF8",
".. c #C9EEF8",
"X. c #CBECFA",
"o. c #D0EEFA",
"O. c #DAEFFA",
"+. c #C8F0F8",
"@. c #C9F0F9",
"#. c #CCF1FB",
"$. c #CDF2FC",
"%. c #CFF2FC",
"&. c #D4F0FB",
"*. c #DAF0F9",
"=. c #DEF0F9",
"-. c #DCF3FB",
";. c #DAF4FB",
":. c #DFF4FC",
">. c #E1F2FA",
",. c #E0F3FA",
"<. c #E1F3FB",
"1. c #E1F4FB",
"2. c #E1F3FD",
"3. c #E1F6FC",
"4. c #E5F7FD",
"5. c #E7F7FD",
"6. c #EEFAFC",
"7. c None",
/* pixels */
"7.7.7.7.7.7.7.7.7.7.7.7.7.7.7.7.7.7.7.7.",
"7.7.7.7.7.7.7.7.7.7.7.7.7.7.7.7.7.7.7.7.",
"7.7.7.7.7.7.7.7.7.7.7.7.7.7.7.7.7.7.7.7.",
"7.7.7.7.7.7.7.7.7.7.7.7.7.7.7.7.7.7.7.7.",
"7.7.7.7.7.7.7.7.7.7.7.7.7.7.7.7.7.7.7.7.",
"7.7.7.7.7.7.7.7.7.i s p B T 7.7.7.7.7.7.",
"7.7.7.7.7.7.j e & u ) ] R Y 7.7.7.7.7.7.",
"7.7.7.7.7.A ( [ c , x 3.X.^ Y 7.7.7.7.7.",
"7.7.7.7.M ' o.1.;.y > ~ <.` H q 7.7.7.7.",
"7.7.7.7.V { :.5.,...6 5  .G 2 X 7.7.7.7.",
"7.7.7.7.U } O.2.>.6.+.: ; < % 0 7.7.7.7.",
"7.7.7.7.Q $.&.4.=.*.! $   3 l D 7.7.7.7.",
"7.7.7.7.P / %.-.| t = ; # @ z W 7.7.7.7.",
"7.7.7.7.r h J k 4 - f @.F + 8 m 7.7.7.7.",
"7.7.7.7.7.* . O 1 d _ #.E 7 o 7.7.7.7.7.",
"7.7.7.7.7.7.9 g v a b Z N w 7.7.7.7.7.7.",
"7.7.7.7.7.7.7.L S K C I n 7.7.7.7.7.7.7.",
"7.7.7.7.7.7.7.7.7.7.7.7.7.7.7.7.7.7.7.7.",
"7.7.7.7.7.7.7.7.7.7.7.7.7.7.7.7.7.7.7.7.",
"7.7.7.7.7.7.7.7.7.7.7.7.7.7.7.7.7.7.7.7.",
"7.7.7.7.7.7.7.7.7.7.7.7.7.7.7.7.7.7.7.7."
};
