/* XPM */
static char *result[] = {
/* columns rows colors chars-per-pixel */
"40 40 243 2 ",
"   c #771B04",
".  c #592C19",
"X  c #5B351E",
"o  c #68280C",
"O  c #76280B",
"+  c #6D2B1A",
"@  c #7A2A15",
"#  c #6D351D",
"$  c #783618",
"%  c #583828",
"&  c #452B27",
"*  c #6B3B24",
"=  c #6D3C2A",
"-  c #623927",
";  c #733E2A",
":  c #7A3B25",
">  c #643B30",
",  c #6C2922",
"<  c #5F4431",
"1  c #6A442B",
"2  c #7A4425",
"3  c #74442C",
"4  c #7D432D",
"5  c #7C4B2B",
"6  c #734829",
"7  c #644433",
"8  c #6D4534",
"9  c #6C4A34",
"0  c #68493B",
"q  c #744434",
"w  c #7C4432",
"e  c #734B34",
"r  c #7B4C33",
"t  c #744C3A",
"y  c #7C4E3C",
"u  c #764639",
"i  c #6F5238",
"p  c #74523D",
"a  c #7C533C",
"s  c #795437",
"d  c #6C4B42",
"f  c #7C4D41",
"g  c #784E46",
"h  c #6C5648",
"j  c #745243",
"k  c #7B5443",
"l  c #755A43",
"z  c #7D5B45",
"x  c #74564B",
"c  c #765B4C",
"v  c #7C5C4A",
"b  c #7B544A",
"n  c #785C53",
"m  c #7B624C",
"M  c #756043",
"N  c #7B6453",
"B  c #7A655A",
"V  c #7C6962",
"C  c #882A0D",
"Z  c #8A350C",
"A  c #94370D",
"S  c #852B17",
"D  c #833B1C",
"F  c #8C3C1C",
"G  c #893616",
"H  c #953B1B",
"J  c #983B16",
"K  c #A33812",
"L  c #A1370D",
"P  c #8B3E25",
"I  c #863826",
"U  c #933D26",
"Y  c #8D421B",
"T  c #86421A",
"R  c #97441E",
"E  c #A54918",
"W  c #A6531D",
"Q  c #B7581A",
"!  c #844325",
"~  c #8C4323",
"^  c #83442B",
"/  c #8B452B",
"(  c #844C2D",
")  c #8C4C2D",
"_  c #884A25",
"`  c #924423",
"'  c #934A25",
"]  c #934529",
"[  c #934B2C",
"{  c #9B4C2B",
"}  c #9A4727",
"|  c #8B522B",
" . c #8A5426",
".. c #95542D",
"X. c #9B532B",
"o. c #975727",
"O. c #844D34",
"+. c #8C4C33",
"@. c #844E3A",
"#. c #884637",
"$. c #934C33",
"%. c #9A4E31",
"&. c #974B39",
"*. c #845336",
"=. c #8B5235",
"-. c #83543C",
";. c #8C543C",
":. c #855B3D",
">. c #8C593C",
",. c #875937",
"<. c #945334",
"1. c #9B5232",
"2. c #9C5A35",
"3. c #93533B",
"4. c #9B553A",
"5. c #935B3B",
"6. c #9B5B3C",
"7. c #945D37",
"8. c #A24D24",
"9. c #A34D2B",
"0. c #A64A21",
"q. c #A75629",
"w. c #B55828",
"e. c #A45435",
"r. c #A35B34",
"t. c #A25C3D",
"y. c #A95937",
"u. c #B65B32",
"i. c #B55E36",
"p. c #A34E31",
"a. c #87633D",
"s. c #9B633B",
"d. c #B7622A",
"f. c #A4633C",
"g. c #AC633D",
"h. c #AA6637",
"j. c #B3633D",
"k. c #B46D3C",
"l. c #BB6B3B",
"z. c #B86436",
"x. c #B4703F",
"c. c #C25A1D",
"v. c #C15821",
"b. c #C2642B",
"n. c #C46438",
"m. c #CE7232",
"M. c #854F42",
"N. c #845444",
"B. c #8C5542",
"V. c #835B43",
"C. c #8B5B44",
"Z. c #835C4B",
"A. c #8B5C4B",
"S. c #84534C",
"D. c #925542",
"F. c #945C44",
"G. c #9C5D43",
"H. c #9B5D4A",
"J. c #985847",
"K. c #845D53",
"L. c #995D52",
"P. c #A45C43",
"I. c #A65946",
"U. c #8B6244",
"Y. c #85634D",
"T. c #8B634C",
"R. c #8D684B",
"E. c #856445",
"W. c #946243",
"Q. c #9D6345",
"!. c #94644C",
"~. c #9C644C",
"^. c #946A4C",
"/. c #9C6B4C",
"(. c #9B6945",
"). c #99714E",
"_. c #836353",
"`. c #8B6552",
"'. c #856C56",
"]. c #8C6B53",
"[. c #846B5B",
"{. c #8B6B59",
"}. c #936453",
"|. c #946C54",
" X c #9A6C54",
".X c #936C5B",
"XX c #9B6D5B",
"oX c #996555",
"OX c #8D735F",
"+X c #88735B",
"@X c #9D7253",
"#X c #95735C",
"$X c #9C735C",
"%X c #977354",
"&X c #A36444",
"*X c #AB6543",
"=X c #AC6944",
"-X c #A1644C",
";X c #A36A4C",
":X c #AB6B4B",
">X c #A76647",
",X c #B76A46",
"<X c #A8734B",
"1X c #B47244",
"2X c #B5734A",
"3X c #A66A54",
"4X c #A66F55",
"5X c #A3755C",
"6X c #A57B5C",
"7X c #A97558",
"8X c #B77657",
"9X c #B76358",
"0X c #876C61",
"qX c #976E62",
"wX c #8D7464",
"eX c #857567",
"rX c #937362",
"tX c #9B7562",
"yX c #9C7A64",
"uX c #947B6B",
"iX c #9C7D6A",
"pX c #957866",
"aX c #9A7E72",
"sX c #A27D6A",
"dX c #A57863",
"fX c #B37E64",
"gX c #C37746",
"hX c #D47D46",
"jX c #C67957",
"kX c #BB855B",
"lX c #AC815E",
"zX c #988375",
"xX c #948460",
"cX c #A2826D",
"vX c #AC8568",
"bX c #B68869",
"nX c #A78D77",
"mX c #B88B73",
"MX c #AC927B",
"NX c #BF9074",
"BX c #C68159",
"VX c #C98D6A",
"CX c #9D8C84",
/* pixels */
"& & - > 3 * 7 y % * q * 0 > 6 z . % ; e r u s q 2 1 8 9 r 3 / ( O.f 5 ! *.M.5 v ",
"f.W.e.7.# F S S S $ G r 3 H { ] G R [ y G A 9.{ 0.<.G.h.l.j.u.q.n...[ 5.G.1.~ 8.",
"o.7.5.z - + o $ + o : g p 4 $ I ^ D $ q o @ ~ @ Z 2 [ E W } q.q.R ) F ) $ { D G ",
"u O.- r y 3 h C.@.V.l I ^ = 1 ( ..j pXzXC.p i 1 0 T.$ ) t #./ ( >.F.;.V.R.@X^.N ",
"] G : / ] P 2 C H C.3     $ P J A w 3.r.' 2 T Y ~ A J H 4 S A $.3.L A +.&Xl.,X|.",
"Z.9 x 0 y A._.b v uXV > f x - = y v 1 4 *.l 4 ; p r 8 t e 4 ^ V.m 9 5 s e 2 e N ",
"] ~ + _.XX$X:XP.f.t.@X=.` ~ } } ' } 6 p y...7.r.s.&X*.( d.Q W h.l.f I D I S P H ",
"* $ . j ;.B.D.s.J.e.}.j $ D : G I U 5 y +.| .. .Q.s.3.2 E E 8.{ X.B., @ O S $ S ",
"a a k V.s t C.B ^.|.zXyXB.-.p '.^.A.}.;.* 6 -.n [.a ].j j S.[.7X6X5X}.-XV.d d u ",
"T { ' ] X.' / -.<.s.Q...r...[ :.q.8.q.u.q.u.' ; w #.#.;.3.A.A.u.w.z.,Xb.2XQ.G.3.",
"K._.p l v a [.aXg 0 N.-.* q w T.C.,.;.-.=.>.}._.b N.N.k b [.tXB.:.A.XX4X^.e ; #.",
"H.T.~..XT.:XQ.3XQ.s.4X/.=.I.6.9.1.2.&XU.[ r.s.o.f. .3.R.s.<X7X-.&X(.dX9 ` : P Y ",
"#.C.:.qXV._ >X-XP.6.&X^.s.P.t.R { ' / !...' ..' o. .*.^.*Xs.;X~.2XQ.5Xv @ I U T ",
"8 9 e v ].e l B j v a N.a a Y.wXsX$XiXOXwXrX+Xd Y.V.{.#X$X#XV.].cX7XvX6Xs :.U.`.",
"] Y ' Y R Y [ ;.5 | _ J C G P 6 +.t.t.<.;.&.3.M.J.1.) J.&.{ U ( c.m.m.m.m.BXk.6X",
"* ; a r 1 a C.l ^ B.y q 4 4 V.c y M.p f d 8 9 [.r 5 '.Z.@.;.a m =Xk.X.h.z.z.D.K.",
"O.@.B.a -.A.!.^.C.G.|.uX>.C.oX~.-XQ.5.].| $.} s.' ! 7.V.+.g.&X=Xt.tX}.sXyXvXmXdX",
"[ ^ @ @.M.^ } F.@.<.B.n ) ` ] ] ] H F tXP K A I G Y O =.e.u.u.8.0.M.W.3XP.I.K.L.",
"k k 7 m '.b e 8 O.w 7 x k a c l v {.A.eXc k E.{.{.Y.{.zXwXY.#X#XZ.wXd g {.v x b ",
"5.X.-.X.l.2XN.Z G ` s e.z.s.H.2Xt.k B.O.!.B ;.G.H.|.VXBXs.h.z.gX; O.$.+. Xl.e./.",
"t 1 0 | 5 r [.# : : '.7.5.U.-.1.*X.Xq w N.{.-.@.-.m 6.Q.q 7.f.[ j k ;.S.E.+.;.0X",
"r y N.V.f B.3.;.M.C.!.t [.qX#XB.%XdXC.p b iX|.|.aXuXT.N zXMXMXMXiXcXpXA./.R.C.3X",
"{ X.R ( D ~ Z D F G { : D.9X>X&.dXJ.{ N.:.#.H.P.;Xr.1.s -X8X~.P.8X,X6X[ K 8.R E ",
"e u 4 N.% . 4 e 6 y * 7 N.A.`.v A.R.}._.C.Z.`.z U.}.`.[.Z.$X.XqXcX7XCX|.#.B.>.;.",
"+.} 3.1...O.2.C.7XBX8Xz.j.-X,XXX;X=X8XbXVX7XfXT.j.x.jXgXh.,X*XW.BX2XjXVXVXlX/ { ",
": ~ ] / ( $.+.@.!./.!.P.3.3.7XT.6.6.G.5XXX5.-Xa...F.e.q.{ { r.!.*XP.j.2XBX(.O $ ",
"*.,.(.K.j D.A..XpX_.|.x % R.^.|.dX).4X|.K.|..XY. XoX'.%X6XyXfXvX/.Z.V.W.C.%X4XE.",
"3.-.*._.B.E 9.X.3.4.9.G.j 4X-X5.1Xd.y.1X;.y.p.9.P.P..XQ.i.kXn.c.b...j.z.BXm.gX,X",
"Z.m v _._.*.y 1 q ; * 8 0 e -.K.a ( *.U.z -.F.C.F.`.Y.5 P.^.6.g.t.E./.s.(.^./.a ",
"=.f.*Xg.r.6.-X].3.Q.L.4.h.h.k.|.;.6.` { [ 4.-X-.3.*X7Xf.&XY..X5XvX6X<X2X@Xl F.:X",
"S.@.*.+.) t.&X.X[ ) @.1.' Y 9.~.<.r.~ =.3.^ <.4 +.X.&X<Xk.lXF.*X>.g.s.o.3.#Xt.f.",
"wX`.w z ].].Z.B k k k A.`._.V._._.tXpX].c 4XtXzX|.xXsXrX0XaXtXfXR./././.-.#X/.:.",
"P.L.D.4.w 4.s.| { t.>.6.O.$.e.{ dX8X8X8XB.*Xz.z.,X1X;X3X% { :Xe.y Q w.b.Q Q u.w.",
"c Z.j m B -.a C.*.5 *.^.`.r *.B.}.A.G.}.A.J.!.-X4.~.~.}.> : $.^ 1 R X.q.q.8.' 2.",
"v k v 0Xy : % v ^.!.{..XqXm '.F.).tXpXcXtX.XsX4X|.rX`.Y..Xs a W.7X!.f &.L.k z }.",
"P &.~.y A S # 4 } 8.B.O.P $.O.A A ~ -.4.4.>.} p.>.tX4 _ ! $.#.&Xy.~.w U #.M.@.] ",
"t c n n 7 7 h n v {.CXx t j n 6 V.iXwXR.{.iX-.k rXuX0Xq 8 r [.|.6XwX`.T._.aXwX|.",
"). XG.~.a 3.^ B.C.<.G.,.U.2X2XkX8XNXbXbXp F.&X>.5.[ s.a a ,X=X2X8Xb T.oX~.oXJ.!.",
"3.+.G.-Xq @   I S C C @ O.q.b.w.,XjXBX8Xz / F ] ' R ` | 5 i.F Y g.:.4 ( ] ] ! ^ ",
"t 7 7 C.M - > % - 3 e p `.,.a.a E.'.Y.6 eXN l 7 < v t l t > d < a zXR.0 k 0 d l "
};
